<?xml version="1.0" standalone="no"?>
<!DOCTYPE svg PUBLIC "-//W3C//DTD SVG 20010904//EN"
 "http://www.w3.org/TR/2001/REC-SVG-20010904/DTD/svg10.dtd">
<svg version="1.0" xmlns="http://www.w3.org/2000/svg"
 width="260.000000pt" height="260.000000pt" viewBox="0 0 260.000000 260.000000"
 preserveAspectRatio="xMidYMid meet">
<metadata>
Created by potrace 1.11, written by Peter Selinger 2001-2013
</metadata>
<g transform="translate(0.000000,260.000000) scale(0.100000,-0.100000)"
fill="#000000" stroke="none">
<path d="M633 2347 c-35 -19 -102 -77 -88 -77 4 0 2 -7 -5 -15 -7 -9 -15 -28
-17 -43 -8 -49 -8 -142 -1 -142 5 0 8 -8 8 -18 0 -12 -8 -18 -25 -20 -13 -1
-30 -3 -36 -4 -21 -5 -70 -51 -86 -82 -17 -32 -24 -124 -11 -132 5 -3 7 -12 4
-19 -2 -7 4 -22 15 -33 10 -12 19 -25 19 -31 0 -13 72 -72 117 -96 35 -18 57
-55 34 -55 -7 0 -7 -8 -1 -24 5 -13 7 -26 4 -29 -8 -8 -16 -106 -18 -212 -1
-86 -3 -100 -19 -103 -9 -2 -17 -8 -17 -13 0 -5 -6 -9 -13 -9 -18 0 -63 -49
-72 -78 -3 -12 -10 -20 -15 -17 -5 3 -9 -3 -9 -12 0 -10 -2 -44 -4 -75 -2 -32
-1 -58 3 -58 4 0 7 -6 8 -12 3 -47 48 -142 81 -172 11 -10 18 -23 15 -27 -3
-5 0 -9 6 -9 6 0 17 -6 25 -13 30 -28 56 -47 65 -47 9 0 14 -14 11 -32 0 -5 3
-8 9 -8 5 0 10 -5 10 -11 0 -15 66 -96 104 -128 15 -14 34 -31 42 -39 8 -7 14
-11 14 -7 0 3 10 -3 22 -15 12 -11 28 -20 35 -20 7 0 13 -4 13 -8 0 -8 115
-65 133 -66 4 -1 11 -6 15 -12 9 -15 125 -74 144 -74 8 0 18 -3 22 -7 10 -11
34 -14 133 -18 53 -2 95 0 98 6 4 5 11 7 16 3 5 -3 17 0 26 8 14 11 16 11 8
-2 -7 -12 -6 -13 7 -3 8 7 18 10 21 6 4 -3 7 -1 7 5 0 7 6 12 13 12 13 0 109
48 117 59 10 14 88 50 94 44 3 -4 6 -1 6 6 0 7 5 9 10 6 6 -3 10 -1 10 4 0 6
5 11 11 11 5 0 36 18 68 39 78 53 151 127 173 177 6 13 15 24 20 24 4 0 8 6 8
14 0 8 14 25 31 37 48 34 79 65 79 79 0 7 3 10 7 7 6 -7 32 23 29 34 0 4 6 15
15 25 14 16 31 54 34 74 0 3 4 11 8 18 5 6 5 17 2 22 -3 6 -2 10 3 10 12 0 8
100 -5 125 -6 11 -11 22 -10 25 3 20 -54 82 -89 97 l-41 17 -1 78 c0 43 -1 79
-2 81 0 1 -3 27 -5 57 -16 227 -18 243 -53 325 -23 55 -54 100 -99 143 -55 53
-144 108 -165 104 -5 -1 -8 3 -8 8 0 5 -3 9 -7 8 -5 0 -16 2 -25 5 -31 12 -48
17 -51 14 -1 -1 -24 19 -49 45 -47 47 -122 97 -155 103 -10 2 -19 4 -20 5 -2
2 -7 4 -13 5 -5 1 -11 3 -12 5 -14 10 -151 15 -197 5 -13 -2 -44 -12 -68 -21
-43 -17 -45 -16 -96 7 -29 13 -55 28 -59 34 -4 5 -8 6 -8 2 0 -9 -130 80 -141
96 -3 5 -10 9 -15 9 -5 0 -20 5 -34 11 -14 6 -28 11 -32 12 -5 2 -9 4 -10 5
-13 11 -94 2 -125 -13z"/>
</g>
</svg>
